<svg width="22" height="21" viewBox="0 0 22 21" fill="none" xmlns="http://www.w3.org/2000/svg">
<path d="M14.5481 11.9665C14.5481 13.8341 12.9565 15.3533 11 15.3533C9.04351 15.3533 7.45254 13.8341 7.45254 11.9665C7.45254 10.0989 9.04351 8.5797 11 8.5797C12.9565 8.5797 14.5481 10.0995 14.5481 11.9665ZM22 7.15741V16.7767C22 18.0591 20.9108 19.0989 19.5673 19.0989H2.43269C1.08924 19.0989 0 18.0591 0 16.7767V7.15741C0 5.87502 1.08924 4.8353 2.43269 4.8353H5.42489V4.03185C5.42489 2.90969 6.37729 2 7.55349 2H14.4465C15.6227 2 16.5751 2.90969 16.5751 4.03185V4.83472H19.5673C20.9108 4.8353 22 5.87502 22 7.15741ZM16.3726 11.9665C16.3726 9.13875 13.9624 6.83812 11 6.83812C8.0382 6.83812 5.62802 9.13875 5.62802 11.9665C5.62802 14.7942 8.0382 17.0949 11 17.0949C13.9624 17.0949 16.3726 14.7942 16.3726 11.9665Z" fill="#EE9086"/>
</svg>
