<svg width="18" height="22" viewBox="0 0 18 22" fill="none" xmlns="http://www.w3.org/2000/svg">
<path d="M12.0346 7.97064C11.75 7.97064 11.5193 8.20128 11.5193 8.48586V18.2236C11.5193 18.5079 11.75 18.7388 12.0346 18.7388C12.3192 18.7388 12.5498 18.5079 12.5498 18.2236V8.48586C12.5498 8.20128 12.3192 7.97064 12.0346 7.97064Z" fill="#EE9086"/>
<path d="M5.95492 7.97064C5.67034 7.97064 5.4397 8.20128 5.4397 8.48586V18.2236C5.4397 18.5079 5.67034 18.7388 5.95492 18.7388C6.2395 18.7388 6.47014 18.5079 6.47014 18.2236V8.48586C6.47014 8.20128 6.2395 7.97064 5.95492 7.97064Z" fill="#EE9086"/>
<path d="M1.52404 6.54958V19.2435C1.52404 19.9938 1.79916 20.6984 2.27977 21.204C2.75816 21.711 3.42392 21.9988 4.12067 22H13.8688C14.5658 21.9988 15.2315 21.711 15.7097 21.204C16.1903 20.6984 16.4654 19.9938 16.4654 19.2435V6.54958C17.4208 6.296 18.0399 5.37303 17.9121 4.3927C17.7841 3.41257 16.9491 2.67939 15.9605 2.67919H13.3226V2.03516C13.3256 1.49357 13.1115 0.973523 12.7281 0.590931C12.3447 0.208541 11.8238 -0.0043905 11.2822 3.71782e-05H6.70724C6.16566 -0.0043905 5.6448 0.208541 5.26141 0.590931C4.87801 0.973523 4.66387 1.49357 4.66689 2.03516V2.67919H2.029C1.04042 2.67939 0.205398 3.41257 0.0773977 4.3927C-0.0504012 5.37303 0.568669 6.296 1.52404 6.54958ZM13.8688 20.9695H4.12067C3.23977 20.9695 2.55448 20.2128 2.55448 19.2435V6.59486H15.435V19.2435C15.435 20.2128 14.7497 20.9695 13.8688 20.9695ZM5.69733 2.03516C5.69391 1.76688 5.79937 1.50867 5.98976 1.31928C6.17995 1.1299 6.43877 1.02585 6.70724 1.03048H11.2822C11.5507 1.02585 11.8095 1.1299 11.9997 1.31928C12.1901 1.50847 12.2956 1.76688 12.2922 2.03516V2.67919H5.69733V2.03516ZM2.029 3.70963H15.9605C16.4727 3.70963 16.8879 4.12482 16.8879 4.63703C16.8879 5.14923 16.4727 5.56442 15.9605 5.56442H2.029C1.5168 5.56442 1.1016 5.14923 1.1016 4.63703C1.1016 4.12482 1.5168 3.70963 2.029 3.70963Z" fill="#EE9086"/>
<path d="M8.99477 7.97064C8.71019 7.97064 8.47955 8.20128 8.47955 8.48586V18.2236C8.47955 18.5079 8.71019 18.7388 8.99477 18.7388C9.27935 18.7388 9.50999 18.5079 9.50999 18.2236V8.48586C9.50999 8.20128 9.27935 7.97064 8.99477 7.97064Z" fill="#EE9086"/>
</svg>
