<svg width="19" height="22" viewBox="0 0 19 22" fill="none" xmlns="http://www.w3.org/2000/svg">
<path d="M9.03854 10.5975C10.4944 10.5975 11.7551 10.0753 12.7852 9.04505C13.8153 8.01498 14.3375 6.75463 14.3375 5.29856C14.3375 3.843 13.8153 2.58248 12.785 1.55207C11.7548 0.522169 10.4943 0 9.03854 0C7.58247 0 6.32211 0.522169 5.29204 1.55224C4.26196 2.58231 3.73962 3.84283 3.73962 5.29856C3.73962 6.75463 4.26196 8.01515 5.29221 9.04522C6.32245 10.0751 7.58298 10.5975 9.03854 10.5975Z" fill="#EE9086"/>
<path d="M18.3102 16.9169C18.2805 16.4882 18.2204 16.0206 18.132 15.5268C18.0427 15.0293 17.9277 14.559 17.7901 14.1291C17.6479 13.6848 17.4545 13.2461 17.2155 12.8256C16.9675 12.3892 16.6761 12.0092 16.3491 11.6965C16.0072 11.3694 15.5886 11.1064 15.1045 10.9145C14.6221 10.7237 14.0875 10.627 13.5157 10.627C13.2911 10.627 13.0739 10.7191 12.6545 10.9922C12.3963 11.1606 12.0944 11.3553 11.7573 11.5706C11.4691 11.7543 11.0787 11.9263 10.5965 12.0821C10.126 12.2343 9.64833 12.3115 9.17685 12.3115C8.70537 12.3115 8.22784 12.2343 7.75687 12.0821C7.27515 11.9265 6.88474 11.7544 6.59688 11.5708C6.26303 11.3575 5.96091 11.1628 5.6989 10.9921C5.27995 10.719 5.06259 10.6268 4.83801 10.6268C4.26599 10.6268 3.73157 10.7237 3.24934 10.9147C2.76561 11.1062 2.34683 11.3692 2.00459 11.6967C1.6778 12.0095 1.38625 12.3894 1.1385 12.8256C0.899658 13.2461 0.706299 13.6847 0.563965 14.1293C0.426498 14.5591 0.311523 15.0293 0.222229 15.5268C0.133774 16.0199 0.0736847 16.4877 0.0439759 16.9174C0.0147705 17.3383 0 17.7752 0 18.2165C0 19.3649 0.365067 20.2946 1.08496 20.9802C1.79596 21.6568 2.73674 22.0001 3.88078 22.0001H14.4739C15.618 22.0001 16.5584 21.657 17.2696 20.9802C17.9896 20.2951 18.3547 19.3652 18.3547 18.2163C18.3545 17.773 18.3396 17.3358 18.3102 16.9169Z" fill="#EE9086"/>
</svg>
