<svg width='13' height='13' viewBox='0 0 13 13' fill='none' xmlns='http://www.w3.org/2000/svg'>
<g clip-path="url(#clip0)">
<path d="M8.0282 2.18349L0.875419 9.33679C0.839433 9.37288 0.813449 9.41845 0.801076 9.46743L0.00825802 12.6496C-0.0154574 12.7454 0.0126918 12.8473 0.0826008 12.9172C0.135497 12.9701 0.207571 12.9994 0.281295 12.9994C0.303876 12.9994 0.326973 12.9966 0.349451 12.9909L3.53165 12.198C3.58125 12.1856 3.62631 12.1597 3.66229 12.1238L10.8157 4.97098L8.0282 2.18349Z" fill="#9FB0B2"/>
<path d="M12.5878 1.20817L11.7916 0.411953C11.2594 -0.120201 10.3319 -0.119685 9.80039 0.411953L8.82507 1.38728L11.6125 4.17467L12.5878 3.19934C12.8536 2.93363 13 2.57996 13 2.20381C13 1.82766 12.8536 1.47399 12.5878 1.20817Z" fill="#9FB0B2"/>
</g>
<defs>
<clipPath id="clip0">
<rect width="13" height="13" fill="white"/>
</clipPath>
</defs>
</svg>
