<svg width="20" height="20" viewBox="0 0 20 20" fill="none" xmlns="http://www.w3.org/2000/svg">
<g clip-path="url(#clip0)">
<path d="M17.3736 11.0553C17.3736 10.7538 17.4741 10.4523 17.4741 10.0503C17.4741 9.64824 17.4741 9.34673 17.3736 9.04523L19.4842 7.33668C19.6852 7.13568 19.6852 6.93467 19.5847 6.73367L17.5746 3.21608C17.4741 3.11558 17.2732 3.01508 16.9716 3.11558L14.4591 4.1206C13.9565 3.71859 13.3535 3.41709 12.7505 3.11558L12.3485 0.502513C12.449 0.201005 12.1475 0 11.9465 0H7.9264C7.72536 0 7.42389 0.201005 7.42389 0.40201L7.02188 3.11558C6.41886 3.31658 5.91635 3.71859 5.31334 4.1206L2.90128 3.11558C2.59978 3.01508 2.39877 3.11558 2.19773 3.31658L0.187682 6.83417C0.0871796 6.93467 0.187682 7.23618 0.388687 7.43719L2.49924 9.04523C2.49924 9.34673 2.39873 9.64824 2.39873 10.0503C2.39873 10.4523 2.39873 10.7538 2.49924 11.0553L0.388687 12.7638C0.187682 12.9649 0.187682 13.1658 0.288184 13.3669L2.29823 16.8845C2.39873 16.985 2.5997 17.0855 2.90124 16.985L5.4138 15.9799C5.91631 16.3819 6.51933 16.6835 7.12234 16.985L7.52435 19.598C7.52435 19.799 7.72536 20 8.02686 20H12.047C12.248 20 12.5495 19.799 12.5495 19.598L12.9515 16.985C13.5545 16.6835 14.1575 16.3819 14.66 15.9799L17.1726 16.985C17.3736 17.0855 17.6751 16.985 17.7756 16.7839L19.7857 13.2663C19.8862 13.0653 19.8862 12.7638 19.6851 12.6633L17.3736 11.0553ZM9.93645 13.5678C8.0269 13.5678 6.41887 11.9598 6.41887 10.0503C6.41887 8.1407 8.0269 6.53266 9.93645 6.53266C11.846 6.53266 13.454 8.1407 13.454 10.0503C13.454 11.9598 11.846 13.5678 9.93645 13.5678Z" fill="#EE9086"/>
</g>
<defs>
<clipPath id="clip0">
<rect width="20" height="20" fill="white"/>
</clipPath>
</defs>
</svg>
